name C:\Users\antoi\Documents\MyRepositories\predictsim_mtp\Results\Case_40\GRF.mot
datacolumns 19
datarows 17
range 0.83450142 0.92351490
endheader 
time	r_ground_force_vx	r_ground_force_vy	r_ground_force_vz	r_ground_force_px	r_ground_force_py	r_ground_force_pz	l_ground_force_vx	l_ground_force_vy	l_ground_force_vz	l_ground_force_px	l_ground_force_py	l_ground_force_pz	r_ground_torque_x	r_ground_torque_y	r_ground_torque_z	l_ground_torque_x	l_ground_torque_y	l_ground_torque_z	
          0.83450142	          0.00000000	          0.00000000	          0.00000000	          0.00000000	          0.00000000	          0.00000000	        -13.50783471	        527.40667181	         16.60298731	          1.07397595	          0.00000000	         -0.04208236	          0.00000000	          0.00000000	          0.00000000	          0.00000000	          1.41186078	          0.00000000	
          0.84006476	          0.00000000	          0.00000000	          0.00000000	          0.00000000	          0.00000000	          0.00000000	        -12.09904945	        523.64642102	         16.26788431	          1.07668767	          0.00000000	         -0.04223804	          0.00000000	          0.00000000	          0.00000000	          0.00000000	          1.09218733	          0.00000000	
          0.84562810	          0.00000000	          0.00000000	          0.00000000	          0.00000000	          0.00000000	          0.00000000	        -10.69927439	        519.85927435	         15.90108910	          1.07937432	          0.00000000	         -0.04240335	          0.00000000	          0.00000000	          0.00000000	          0.00000000	          0.80284872	          0.00000000	
          0.85119144	          0.00000000	          0.00000000	          0.00000000	          0.00000000	          0.00000000	          0.00000000	         -9.20692636	        516.19229746	         15.50893079	          1.08205468	          0.00000000	         -0.04257624	          0.00000000	          0.00000000	          0.00000000	          0.00000000	          0.54363370	          0.00000000	
          0.85675479	          0.00000000	          0.00000000	          0.00000000	          0.00000000	          0.00000000	          0.00000000	         -7.54651718	        512.68908411	         15.10298132	          1.08474194	          0.00000000	         -0.04275568	          0.00000000	          0.00000000	          0.00000000	          0.00000000	          0.31389621	          0.00000000	
          0.86231813	          0.00000000	          0.00000000	          0.00000000	          0.00000000	          0.00000000	          0.00000000	         -5.73337450	        509.41593337	         14.70676982	          1.08744144	          0.00000000	         -0.04294133	          0.00000000	          0.00000000	          0.00000000	          0.00000000	          0.11288093	          0.00000000	
          0.86788147	          0.00000000	          0.00000000	          0.00000000	          0.00000000	          0.00000000	          0.00000000	         -3.87167025	        506.51681796	         14.33237386	          1.09015110	          0.00000000	         -0.04313350	          0.00000000	          0.00000000	          0.00000000	          0.00000000	         -0.06007630	          0.00000000	
          0.87344482	          0.00000000	          0.00000000	          0.00000000	          0.00000000	          0.00000000	          0.00000000	         -2.00331100	        504.10999527	         14.00612672	          1.09286293	          0.00000000	         -0.04333297	          0.00000000	          0.00000000	          0.00000000	          0.00000000	         -0.20905534	          0.00000000	
          0.87900816	          0.00000000	          0.00000000	          0.00000000	          0.00000000	          0.00000000	          0.00000000	         -0.16632925	        502.27714869	         13.70077095	          1.09556624	          0.00000000	         -0.04354019	          0.00000000	          0.00000000	          0.00000000	          0.00000000	         -0.34510369	          0.00000000	
          0.88457150	          0.00000000	          0.00000000	          0.00000000	          0.00000000	          0.00000000	          0.00000000	          1.54725862	        501.11678150	         13.36049336	          1.09824557	          0.00000000	         -0.04375660	          0.00000000	          0.00000000	          0.00000000	          0.00000000	         -0.47340183	          0.00000000	
          0.89013484	          0.00000000	          0.00000000	          0.00000000	          0.00000000	          0.00000000	          0.00000000	          3.11236902	        500.66135358	         12.96989930	          1.10088304	          0.00000000	         -0.04398516	          0.00000000	          0.00000000	          0.00000000	          0.00000000	         -0.59052550	          0.00000000	
          0.89569819	          0.00000000	          0.00000000	          0.00000000	          0.00000000	          0.00000000	          0.00000000	          4.41786978	        500.91149181	         12.55278503	          1.10346043	          0.00000000	         -0.04422934	          0.00000000	          0.00000000	          0.00000000	          0.00000000	         -0.69396626	          0.00000000	
          0.90126153	          0.00000000	          0.00000000	          0.00000000	          0.00000000	          0.00000000	          0.00000000	          5.40968324	        501.87236475	         12.19944316	          1.10596496	          0.00000000	         -0.04449022	          0.00000000	          0.00000000	          0.00000000	          0.00000000	         -0.78573266	          0.00000000	
          0.90682487	          0.00000000	          0.00000000	          0.00000000	          0.00000000	          0.00000000	          0.00000000	          6.99444991	        503.29844176	         12.18455880	          1.10839750	          0.00000000	         -0.04476428	          0.00000000	          0.00000000	          0.00000000	          0.00000000	         -0.87469824	          0.00000000	
          0.91238821	          0.00000000	          0.00000000	          0.00000000	          0.00000000	          0.00000000	          0.00000000	          9.08086316	        505.33814841	         12.45677751	          1.11076801	          0.00000000	         -0.04504448	          0.00000000	          0.00000000	          0.00000000	          0.00000000	         -0.96531263	          0.00000000	
          0.91795156	          0.00000000	          0.00000000	          0.00000000	          0.00000000	          0.00000000	          0.00000000	         11.26015928	        508.03386961	         12.78804043	          1.11306273	          0.00000000	         -0.04533386	          0.00000000	          0.00000000	          0.00000000	          0.00000000	         -1.05505427	          0.00000000	
          0.92351490	          0.00000000	          0.00000000	          0.00000000	          0.00000000	          0.00000000	          0.00000000	         13.48037434	        511.17469234	         13.17542659	          1.11526502	          0.00000000	         -0.04563245	          0.00000000	          0.00000000	          0.00000000	          0.00000000	         -1.14911080	          0.00000000	
